<?xml version="1.0" encoding="UTF-8" standalone="no"?>
<!-- Created with Inkscape (http://www.inkscape.org/) -->

<svg
   width="5.3312798in"
   height="5.2281637in"
   viewBox="0 0 135.41454 132.79534"
   version="1.1"
   id="svg5"
   sodipodi:docname="layerless.svg"
   inkscape:version="1.1.1 (3bf5ae0d25, 2021-09-20)"
   xmlns:inkscape="http://www.inkscape.org/namespaces/inkscape"
   xmlns:sodipodi="http://sodipodi.sourceforge.net/DTD/sodipodi-0.dtd"
   xmlns="http://www.w3.org/2000/svg"
   xmlns:svg="http://www.w3.org/2000/svg">
  <sodipodi:namedview
     id="namedview7"
     pagecolor="#505050"
     bordercolor="#eeeeee"
     borderopacity="1"
     inkscape:pageshadow="0"
     inkscape:pageopacity="0"
     inkscape:pagecheckerboard="0"
     inkscape:document-units="mm"
     showgrid="false"
     fit-margin-top="0"
     fit-margin-left="0"
     fit-margin-right="0"
     fit-margin-bottom="0"
     inkscape:zoom="0.70710678"
     inkscape:cx="259.50819"
     inkscape:cy="218.496"
     inkscape:window-width="1920"
     inkscape:window-height="1017"
     inkscape:window-x="-8"
     inkscape:window-y="-8"
     inkscape:window-maximized="1"
     inkscape:current-layer="layer8"
     showguides="false"
     inkscape:object-paths="true"
     inkscape:snap-intersection-paths="true"
     inkscape:snap-smooth-nodes="true"
     inkscape:snap-center="true"
     units="in"
     inkscape:snap-page="true"
     inkscape:snap-bbox="true"
     inkscape:bbox-paths="true"
     inkscape:bbox-nodes="true"
     inkscape:snap-nodes="true"
     inkscape:object-nodes="true"
     inkscape:snap-others="true"
     inkscape:snap-global="false" />
  <defs
     id="defs2" />
  <g
     inkscape:groupmode="layer"
     id="layer8"
     inkscape:label="new layer"
     transform="translate(2.6190625)">
    <circle
       style="display:inline;opacity:0.999;fill:#000000;stroke-width:0.190894"
       id="circle1024"
       cx="64.061508"
       cy="66.975327"
       r="65.088104"
       transform="translate(1.0265961,-1.8872223)" />
    <path
       id="path4066"
       style="display:inline;opacity:0.999;fill:#333333;fill-opacity:1;stroke:none;stroke-width:0.556842;stroke-opacity:1"
       d="m 249.74023,118.26758 v 27.84961 h -3.9707 v 2.375 h -2.94141 V 246 h -5.05859 v 0.002 H 167.46289 V 246 h -29.81445 v -23.33203 h -3.40821 v -1.81055 h -6.2832 v 1.81055 h -6.60156 V 246 h -2.39453 v -20.83008 h -1.65039 v -1.91601 h -1.49219 v -2.92774 h -2.07617 v 2.92774 h -1.81055 v 1.91601 h -2.23633 v -12.56836 h -1.73242 v -3.01172 h -5.26953 v 3.01172 H 98.703125 V 246 H 40.216797 v 0.002 H 0 A 246.00228,246.00228 0 0 0 246.00195,492.00391 246.00228,246.00228 0 0 0 492.00391,246.00195 H 428.41406 V 246 h -15.43554 v -24.74023 h -3.8379 v -4.51563 h -9.86328 V 246 h 2.65821 v 0.002 H 390.11719 V 246 h -5.14649 v -39.79688 h -1.35547 v -1.80859 h -1.58203 v 1.80859 h -2.41015 V 246 h -3.58008 v 0.002 H 358.76758 V 246 205.29688 l -2.59766,-7.91211 -2.59765,7.91211 V 246 h -0.75196 v -37.46289 l -2.37109,-5.34375 -2.37305,5.34375 V 246 h -5.13086 v -33.12891 h -3.30078 v -12.77734 h -9.47656 V 246 h 3.15234 v 0.002 h -9.78906 V 246 h -1.24414 v -21.20312 h -8.46875 V 246 h 2.55859 v 0.002 H 279.85938 V 246 h -9.00196 v -42.71289 h -9.90234 V 246 h -2.34375 v -97.50781 h -2.94141 v -2.375 h -3.9707 v -27.84961 z"
       transform="matrix(0.26458333,0,0,0.26458333,1.7549875e-4,9.15e-5)"
       inkscape:transform-center-y="15.645822"
       inkscape:transform-center-x="-8.7661719e-05" />
    <path
       id="path4020"
       style="display:inline;opacity:0.999;fill:#666666;fill-opacity:1;stroke:none;stroke-width:0.556842;stroke-opacity:1"
       d="M 183.64844,190.93555 V 246 h 8.62304 V 190.9375 Z M 386.25,193.47656 V 246 h -10.20703 v 0.002 H 358.76758 V 246 h 10.16406 v -40.25 h -6.92773 v 18.52148 h -3.83985 v -2.85937 l -2.82422,-7.23047 -2.82226,7.23047 v 2.85937 h -4.29297 V 246 h -2.10742 v -42.20703 h -4.29297 V 246 h -8.50391 v 0.002 H 167.46289 V 246 h -0.95898 V 216.59766 H 154.89844 V 246 H 99.207031 v -23.33203 h -2.3125 v -3.70508 h -0.601562 v 3.70508 h -0.865235 v -1.4082 h -2.560546 v 1.4082 h -1.542969 v -5.51172 h -0.94336 v 5.51172 h -2.992187 v 16.39844 H 76.865234 v -17.05274 h -5.34375 v -1.42969 h -4.367187 v 1.42969 H 65.722656 V 246 H 40.216797 v 0.002 H 0 A 246.00228,246.00228 0 0 0 246.00195,492.00391 246.00228,246.00228 0 0 0 492.00391,246.00195 H 467.10352 428.41406 V 246 h -1.77539 v -34.83203 l -6.38867,-3.04688 -6.38867,3.04688 V 246 h -11.92578 v 0.002 H 390.11719 V 246 h 2.60742 v -52.52344 z m 80.85352,52.52539 6.91992,-0.002 v -35.15039 h -5.64258 v -1.81055 h -6.92188 v 1.81055 h -6.60351 V 246 h 12.24805 z M 227.94336,196.89844 V 246 h 8.83594 V 196.89844 Z M 430.37109,207.7832 V 246 h 6.17383 v -34.9043 h -2.10742 v -3.3125 z m -254.2832,9.13477 V 246 h 5.75 v -29.08203 z m -7.56055,0.95703 V 246 h 5.53711 v -28.125 z"
       transform="matrix(0.26458333,0,0,0.26458333,1.7549875e-4,9.15e-5)"
       inkscape:transform-center-y="25.259191"
       inkscape:transform-center-x="-8.7661719e-05" />
    <path
       id="path3918"
       style="display:inline;opacity:0.999;fill:#808080;fill-opacity:1;stroke:none;stroke-width:0.556842;stroke-opacity:1"
       d="m 285.80859,177.51367 v 9.03711 h -2.56054 V 246 h 11.74609 v 0.002 H 279.85938 V 246 h -26.05079 v -23.68555 h -1.95898 v -29.13867 l -8.2832,-4.53711 -8.28125,4.53711 v 29.13867 h -1.35547 V 246 h 3.83984 v 0.002 h -28.1582 V 246 h 8.64453 V 188.16602 H 193.55273 V 246 h 2.55469 v 0.002 H 167.46289 V 246 h -25.02344 v -44.94922 h -7.02734 V 246 H 58.53125 v -35.04492 h -2.980469 v -4.04688 h -3.726562 v -3.62109 h -5.964844 v 3.62109 h -3.726563 v 4.04688 H 39.152344 V 246 h 1.064453 v 0.002 H 0 A 246.00228,246.00228 0 0 0 246.00195,492.00391 246.00228,246.00228 0 0 0 492.00391,246.00195 H 390.11719 V 246 h -2.73828 v -21.04883 h -2.33399 v -8.43359 h -8.05664 V 246 h -0.94531 v 0.002 H 358.76758 V 246 H 348.375 v -23.4668 l -4.79102,-2.51953 -4.79101,2.51953 V 246 h -5.47266 v 0.002 h -9.78906 V 246 h -6.09961 V 200.10156 H 306.74023 V 246 h 9.63672 v 0.002 H 306.13867 V 246 h -8.58398 v -45.14453 h -2.10938 v -23.3418 z"
       transform="matrix(0.26458333,0,0,0.26458333,1.7549875e-4,9.15e-5)"
       inkscape:transform-center-y="23.483588"
       inkscape:transform-center-x="-8.7661719e-05" />
    <path
       id="path3885"
       style="display:inline;opacity:0.999;fill:#b3b3b3;fill-opacity:1;stroke:none;stroke-width:0.624378;stroke-opacity:1"
       d="m 300.71484,182.93555 v 17.91992 l -1.74414,45.14258 h 14.84766 v -45.14258 h -0.002 v -17.91992 z m -25.8125,12.47265 c -3.30355,8.9e-4 -6.04153,2.55951 -6.26562,5.85547 h -1.3457 v 19.91211 l -0.3711,24.82227 h 16.82227 v -24.82227 h -1.22461 v -19.91211 h -1.3457 c -0.22409,-3.29663 -2.96528,-5.85542 -6.26954,-5.85547 z m 51.47657,6.54883 -2.77344,2.73828 v 2.85157 h -2.27539 v 11.5 7.24218 19.70899 h 16.07812 v -26.95117 h -1.91601 v -9.26368 h -0.64063 v -2.23632 h -0.0254 v -2.85157 l -2.77344,-2.73828 z m -100.05079,2.00586 v 8.41211 h -2.6621 v 6.70898 h -1.70313 V 222.81055 246 h 6.40039 v -0.002 h 2.34375 V 246 h 7.0625 v 0.002 h -78.61914 v -0.004 h 5.86328 v -21.62696 h -14.9082 v 9.05274 h -7.66602 V 245.998 h 3.93164 v 0.004 h -6.18164 v -21.65429 h -13.10156 v 9.26172 h -4.89453 v 12.38867 h 8.35742 v 0.004 H 0 A 246.00228,246.00228 0 0 0 246.00195,492.00391 246.00228,246.00228 0 0 0 492.00391,246.00195 H 390.11719 V 246 h 0.49804 v -0.002 h 7.45704 v -30.6855 h -2.9375 v -3.08789 h -4.44141 v 3.08789 h -2.41016 v 21.91016 h -9.86328 v -12.875 h -2.93554 v -9.11133 h -3.0879 V 229.4668 246 h 3.64649 v 0.002 H 245.01172 v -23.1914 h -1.81055 v -3.72657 H 242.0293 V 212.375 h -2.23633 v -8.41211 z m 257.80469,6.83008 c -10.10978,4.61368 -12.875,5.875 -12.875,5.875 v 29.33008 h 12.875 z m -67.68945,4.97265 v 2.9336 h -1.58008 v 6.40039 h -5.34766 v 14.30664 h -4.06445 v 1.35547 h -4.66992 v 5.23633 h 28.00977 v -6.5918 h -1.20508 v -1.88086 h -3.23633 v 1.88086 h -3.16406 v -14.30664 h -1.35352 v -6.40039 h -1.6582 v -2.9336 z m 25.47656,2.85547 v 27.37696 h 7.1875 v -6.29297 h -1.4375 v -21.08399 z m -429.205076,9.03907 v 3.61328 H 5.0957031 V 246 H 21.148438 V 231.27344 H 19.71875 v -3.61328 z m 123.031246,18.33789 h 0.75196 v 0.004 h -0.75196 z"
       inkscape:transform-center-y="24.200858"
       inkscape:transform-center-x="-8.7661719e-05"
       transform="matrix(0.26458333,0,0,0.26458333,1.7549875e-4,9.15e-5)" />
    <path
       id="path3842"
       style="display:inline;opacity:0.999;fill:#e6e6e6;fill-opacity:1;stroke-width:0.173553"
       d="m 48.871961,57.139985 v 4.367176 h -4.564066 v 3.609599 h 7.578866 v -3.609599 -4.367176 z m 64.479259,0.216009 v 7.760766 h 3.6065 v -7.760766 z m 5.73764,0.159162 v 7.601604 h 4.49895 v -6.285921 h -0.83354 v -1.315683 z m -15.08177,0.442352 v 1.689817 h -0.78858 v 5.469435 h 3.12694 v -5.469435 h -1.32395 v -1.689817 z m -18.406109,0.03617 v 7.123081 h 2.59002 v -7.12308 z m 12.40544,0.557591 v 4.083987 h -0.3147 v -0.776695 h -2.76779 v 3.258198 h 4.570782 v -2.481503 -4.083987 z m -17.00723,0.0801 v 6.485393 h 2.70888 v -6.485393 z m -25.53952,0.378272 v 6.107121 h 7.45019 V 59.009639 Z M 5.9076566,61.59191 v 3.52485 H 10.6407 v -3.52485 z m 68.1384744,0.82424 v 2.70061 h 4.00441 V 62.41615 Z M 6.5679842e-6,65.117276 A 65.088102,65.088102 0 0 0 65.088021,130.20529 65.088102,65.088102 0 0 0 130.17604,65.117276 Z"
       inkscape:transform-center-y="28.555372"
       inkscape:transform-center-x="-8.7661719e-05" />
    <path
       id="path1050"
       style="display:inline;opacity:0.999;fill:#ffffff;stroke-width:0.198576"
       d="M -3.6456586,66.975329 A 67.707347,67.707347 0 0 0 64.061594,134.68258 67.707347,67.707347 0 0 0 131.76885,66.975329 Z"
       inkscape:transform-center-y="33.853633"
       transform="translate(1.0265961,-1.8872223)" />
  </g>
</svg>
