<?xml version="1.0" encoding="UTF-8" standalone="no"?>
<!-- Created with Inkscape (http://www.inkscape.org/) -->

<svg
   width="5.1705322in"
   height="5.1705322in"
   viewBox="0 0 131.33156 131.33149"
   version="1.1"
   id="svg5"
   sodipodi:docname="nyc_fixed.svg"
   inkscape:version="1.1.1 (3bf5ae0d25, 2021-09-20)"
   xmlns:inkscape="http://www.inkscape.org/namespaces/inkscape"
   xmlns:sodipodi="http://sodipodi.sourceforge.net/DTD/sodipodi-0.dtd"
   xmlns="http://www.w3.org/2000/svg"
   xmlns:svg="http://www.w3.org/2000/svg">
  <sodipodi:namedview
     id="namedview7"
     pagecolor="#505050"
     bordercolor="#eeeeee"
     borderopacity="1"
     inkscape:pageshadow="0"
     inkscape:pageopacity="0"
     inkscape:pagecheckerboard="0"
     inkscape:document-units="mm"
     showgrid="false"
     fit-margin-top="0"
     fit-margin-left="0"
     fit-margin-right="0"
     fit-margin-bottom="0"
     inkscape:zoom="1"
     inkscape:cx="226.5"
     inkscape:cy="135.5"
     inkscape:window-width="1920"
     inkscape:window-height="1017"
     inkscape:window-x="-8"
     inkscape:window-y="-8"
     inkscape:window-maximized="1"
     inkscape:current-layer="toplayer"
     showguides="false"
     inkscape:object-paths="true"
     inkscape:snap-intersection-paths="true"
     inkscape:snap-smooth-nodes="true"
     inkscape:snap-center="true"
     units="in"
     inkscape:snap-page="true"
     inkscape:snap-bbox="true"
     inkscape:bbox-paths="true"
     inkscape:bbox-nodes="true"
     inkscape:snap-nodes="true"
     inkscape:object-nodes="true"
     inkscape:snap-others="true"
     inkscape:snap-global="true" />
  <defs
     id="defs2" />
  <g
     inkscape:groupmode="layer"
     id="layer5"
     inkscape:label="L5">
    <path
       id="l5"
       style="display:inline;opacity:0.999;fill:#333333;fill-opacity:1;stroke:none;stroke-width:0.147331;stroke-opacity:1"
       inkscape:transform-center-x="8.5428735e-05"
       inkscape:transform-center-y="-15.645822"
       d="M 65.665759,0 A 65.665828,65.665828 0 0 0 0,65.66576 h 14.310754 v 5.29e-4 h 4.083989 v 6.545854 h 1.015442 v 1.194759 h 2.609659 V 65.666289 H 21.31601 v -5.29e-4 h 3.126941 v 5.29e-4 h 1.362192 V 76.19588 h 0.358635 v 0.478522 h 0.418578 V 76.19588 h 0.637689 V 65.666276 h 0.947229 v -5.29e-4 h 4.57078 v 5.29e-4 10.769369 l 0.687295,2.093412 0.687298,-2.093412 V 65.666276 h 0.198437 v 9.912056 l 0.62787,1.413869 0.627351,-1.413869 v -9.912056 h 1.35754 v 8.765357 h 0.873847 v 3.380671 h 2.507342 V 65.666276 h -0.834059 v -5.29e-4 h 2.589506 v 5.29e-4 h 0.329695 v 5.609994 h 2.240693 v -5.609994 h -0.676963 v -5.29e-4 h 9.661427 v 5.29e-4 h 2.382282 v 11.301118 h 2.619478 V 65.666276 h 0.620635 v 25.798943 h 0.778246 v 0.628385 h 1.050584 v 7.368543 h 0.517797 v -7.368543 h 1.051097 v -0.628385 h 0.777732 V 65.666276 h 1.338419 v -5.29e-4 h 18.602481 v 5.29e-4 h 7.888409 v 6.173267 h 0.901753 v 0.47904 h 1.66243 v -0.47904 h 1.746665 v -6.173267 h 0.633553 v 5.511292 h 0.436665 v 0.506946 h 0.394809 v 0.774629 h 0.54932 v -0.774629 h 0.479039 v -0.506946 h 0.591695 v 3.325378 h 0.45837 v 0.796851 h 1.394228 v -0.796851 h 1.05575 v -8.83667 h 15.47451 v -5.29e-4 h 14.31024 A 65.665828,65.665828 0 0 0 65.665759,0 Z" />
  </g>
  <g
     inkscape:groupmode="layer"
     id="layer4"
     inkscape:label="L4"
     style="display:inline">
    <path
       id="l4"
       style="display:inline;opacity:0.999;fill:#666666;fill-opacity:1;stroke:none;stroke-width:0.147331;stroke-opacity:1"
       inkscape:transform-center-x="8.5428735e-05"
       inkscape:transform-center-y="-25.259191"
       d="M 65.665759,0 A 65.665828,65.665828 0 0 0 0,65.66576 h 10.107393 10.237102 v 5.29e-4 h 0.469738 v 9.215977 l 1.68982,0.806151 1.690852,-0.806151 v -9.21599 h 3.154846 v -5.29e-4 h 3.126941 v 5.29e-4 h -0.68988 v 13.896826 h 1.71359 V 65.666276 h 2.70061 v -5.29e-4 h 4.57078 v 5.29e-4 h -2.68924 v 10.649478 h 1.832964 v -4.900475 h 1.015958 v 0.756543 l 0.747241,1.913061 0.746207,-1.913061 v -0.756543 h 1.136365 v -5.749003 h 0.557588 v 11.167279 h 1.135848 V 65.666276 h 2.249993 v -5.29e-4 h 43.883108 v 5.29e-4 h 0.253733 v 7.77937 h 3.070611 v -7.77937 h 14.735022 v 6.173267 h 0.61184 v 0.980302 h 0.15917 v -0.980302 h 0.22892 v 0.372587 h 0.67748 v -0.372587 h 0.40825 v 1.458309 h 0.24959 v -1.458309 h 0.79117 V 67.50079 h 2.78484 v 4.511869 h 1.41387 v 0.378272 h 1.15548 v -0.378272 h 0.37879 v -6.346383 h 6.74843 v -5.29e-4 h 8.2765 A 65.665828,65.665828 0 0 0 65.665759,0 Z m -55.558366,65.66576 -1.8303798,5.29e-4 v 9.300207 h 1.4929326 v 0.479041 h 1.8308952 v -0.479041 h 1.747182 v -9.30022 h -3.24063 z m 8.085812,5.29e-4 v 9.235095 h 0.557588 v 0.876433 h 1.075904 V 65.666276 Z m 52.854137,0 V 78.657732 H 73.3857 V 65.666276 Z m 11.776543,0 v 14.568619 l 2.281513,5.29e-4 V 65.666276 Z m 2.760554,0 v 7.694621 h 1.521354 v -7.694634 z m 2.056723,0 v 7.441406 h 1.465027 v -7.441406 z" />
  </g>
  <g
     inkscape:groupmode="layer"
     id="layer3"
     inkscape:label="L3"
     style="display:inline">
    <path
       id="l3"
       style="display:inline;opacity:0.999;fill:#808080;fill-opacity:1;stroke:none;stroke-width:0.147331;stroke-opacity:1"
       inkscape:transform-center-x="8.5428735e-05"
       inkscape:transform-center-y="-23.483588"
       d="M 65.665759,0 A 65.665828,65.665828 0 0 0 0,65.66576 h 19.236036 v 5.29e-4 h 0.724503 v 5.569169 h 0.617533 v 2.231388 h 2.131652 v -7.80057 h 0.250114 v -5.29e-4 h 4.570782 v 5.29e-4 h 2.749701 V 71.8752 l 1.267624,0.666626 1.267622,-0.666626 v -6.208924 h 1.447974 v -5.29e-4 h 2.590022 v 5.29e-4 h 1.613855 v 12.143961 h 2.828769 V 65.666276 h -2.549715 v -5.29e-4 h 2.708878 v 5.29e-4 h 2.271181 v 11.944492 h 0.558104 v 6.175849 h 2.549715 v -2.391069 h 0.677479 V 65.666276 h -3.107822 v -5.29e-4 h 4.004408 v 5.29e-4 h 6.892602 v 6.266801 h 0.518313 v 7.709606 l 2.1916,1.200444 2.19108,-1.200444 v -7.709606 h 0.358635 v -6.266801 h -1.01596 v -5.29e-4 h 7.450193 v 5.29e-4 h -2.287201 v 15.301909 h 6.536036 V 65.666276 h -0.675928 v -5.29e-4 h 7.578865 v 5.29e-4 h 6.620785 V 77.55909 h 1.859317 V 65.666276 h 20.341388 v 9.272304 h 0.78859 v 1.070734 h 0.98598 v 0.95808 h 1.5782 v -0.95808 h 0.98599 V 74.93858 h 0.78858 v -9.272304 h -0.28164 v -5.29e-4 h 19.51768 A 65.665828,65.665828 0 0 0 65.665759,0 Z" />
  </g>
  <g
     inkscape:groupmode="layer"
     id="layer2"
     inkscape:label="L2"
     style="display:inline">
    <path
       id="l2"
       style="display:inline;opacity:0.999;fill:#b3b3b3;fill-opacity:1;stroke:none;stroke-width:0.1652;stroke-opacity:1"
       inkscape:transform-center-x="8.5428735e-05"
       inkscape:transform-center-y="-24.200858"
       d="M 65.665759,0 A 65.665828,65.665828 0 0 0 0,65.66576 h 27.168369 v 5.29e-4 h -0.131776 v 5.29e-4 h -1.973006 v 8.118884 h 0.776695 v 0.817002 h 1.175639 v -0.817002 h 0.637172 v -5.797087 h 2.60966 v 3.406511 h 0.777213 v 2.410705 h 0.816486 V 70.040687 65.666276 H 30.89217 v -5.29e-4 h 34.668685 v 6.13606 h 0.479041 v 0.985986 h 0.31006 v 1.775084 h 0.591693 v 2.225704 h 3.562575 v -2.225704 h 0.70435 v -1.775084 h 0.450617 v -0.985974 -6.135543 h -1.693437 v 5.3e-4 h -0.620117 v -5.3e-4 h -1.869136 v -5.29e-4 h 20.80183 v 0.001 h -1.551326 v 5.722131 h 3.944461 v -2.395202 h 2.028301 v -3.326915 h -1.040246 v -10e-4 h 1.635559 v 5.729367 h 3.466454 v -2.450497 h 1.295011 v -3.277838 h -2.211234 v -0.001 H 131.33152 A 65.665828,65.665828 0 0 0 65.665759,0 Z m 28.606006,65.66576 h 0.198954 v 10e-4 h -0.198954 z m 30.519575,5.29e-4 v 3.896403 h 0.37828 v 0.956014 h 1.85311 v -0.956014 h 2.0159 V 65.666276 Z M 2.2934004,65.666818 v 9.314677 c 2.6748792,-1.220703 3.4065103,-1.554427 3.4065103,-1.554427 v -7.760275 z m 9.2671346,0 v 1.665014 h 0.380338 v 5.578471 h 1.521354 v -7.24351 z m 5.375383,0 v 1.744079 h 0.318842 v 0.497645 h 0.855763 v -0.497645 h 0.837676 v 3.785299 h 0.358116 v 1.693437 h 0.438732 v 0.77618 H 20.2029 v -0.77618 h 0.418063 v -1.693437 h 1.414902 v -3.785323 h 1.075386 v -0.358635 h 1.235583 v -1.385445 z m 24.178368,0 v 7.130831 h 0.506947 v 2.451012 h 0.168982 v 0.591695 h 0.0072 v 0.754476 l 0.733806,0.724503 h 1.501201 l 0.733803,-0.724503 v -0.754476 h 0.60203 v -3.042732 -1.916162 -5.214669 z m 6.241479,0 v 11.943974 h 5.29e-4 v 4.741312 h 3.466454 v -4.741312 l 0.461471,-11.943974 z m 7.957137,0 v 6.567558 h 0.324527 v 5.26841 h 0.356053 c 0.0593,0.872234 0.784563,1.549247 1.658813,1.54926 0.874059,-2.35e-4 1.598491,-0.677204 1.657778,-1.54926 h 0.356053 v -5.268435 l 0.09818,-6.567558 z" />
  </g>
  <g
     inkscape:groupmode="layer"
     id="layer1"
     inkscape:label="L1"
     style="display:inline">
    <path
       id="l1"
       style="display:inline;opacity:0.999;fill:#e6e6e6;fill-opacity:1;stroke-width:0.173553"
       inkscape:transform-center-x="9.0000023e-05"
       inkscape:transform-center-y="-28.555372"
       d="M 65.665759,0 A 65.665828,65.665828 0 0 0 0,65.66576 h 6.8254244 v 6.285921 H 7.659481 v 1.315682 h 3.664892 V 65.66576 h 2.131653 v 7.760766 h 3.606498 V 65.66576 h 7.005256 v 5.469433 h 1.323951 v 1.68982 h 1.014926 v -1.68982 h 0.788064 V 65.66576 h 3.724323 v 2.481502 4.083988 h 1.488281 v -4.083988 h 0.314709 v 0.776697 h 2.76779 V 65.66576 h 6.732921 v 7.123079 h 2.589506 V 65.66576 h 1.893425 v 6.485392 h 2.708878 V 65.66576 h 2.948657 v 2.70061 h 4.003891 v -2.70061 h 11.136786 v 6.10712 h 7.450193 v -6.10712 h 3.572907 v 3.609598 4.367176 h 3.014803 v -4.367176 h 4.564062 V 65.66576 h 33.667197 v 3.524849 h 4.73304 V 65.66576 h 6.82543 A 65.665828,65.665828 0 0 0 65.665759,0 Z" />
  </g>
  <g
     inkscape:groupmode="layer"
     id="toplayer"
     inkscape:label="Top"
     style="display:inline">
    <rect
       style="opacity:0.999;fill:#ffffff;stroke-width:0.181835"
       id="top"
       width="201.71069"
       height="65.665764"
       x="-35.189583"
       y="65.665756"
       ry="0" />
  </g>
</svg>
