<?xml version="1.0" encoding="UTF-8"?>
<!-- Created with Inkscape (http://www.inkscape.org/) -->
<svg width="15in" height="15in" version="1.1" viewBox="0 0 131.33 131.33" xmlns="http://www.w3.org/2000/svg">
 <g id="layer5">
  <path id="l5" d="m65.666 0a65.666 65.666 0 0 0-65.666 65.666h14.311v5.29e-4h4.084v6.5459h1.0154v1.1948h2.6097v-7.7406h-0.70383v-5.29e-4h3.1269v5.29e-4h1.3622v10.53h0.35864v0.47852h0.41858v-0.47852h0.63769v-10.53h0.94723v-5.29e-4h4.5708v10.77l0.6873 2.0934 0.6873-2.0934v-10.769h0.19844v9.9121l0.62787 1.4139 0.62735-1.4139v-9.9121h1.3575v8.7654h0.87385v3.3807h2.5073v-12.146h-0.83406v-5.29e-4h2.5895v5.29e-4h0.3297v5.61h2.2407v-5.61h-0.67696v-5.29e-4h9.6614v5.29e-4h2.3823v11.301h2.6195v-11.301h0.62064v25.799h0.77825v0.62838h1.0506v7.3685h0.5178v-7.3685h1.0511v-0.62838h0.77773v-25.799h1.3384v-5.29e-4h18.602v5.29e-4h7.8884v6.1733h0.90175v0.47904h1.6624v-0.47904h1.7467v-6.1733h0.63355v5.5113h0.43666v0.50695h0.39481v0.77463h0.54932v-0.77463h0.47904v-0.50695h0.5917v3.3254h0.45837v0.79685h1.3942v-0.79685h1.0558v-8.8367h15.475v-5.29e-4h14.31a65.666 65.666 0 0 0-65.666-65.666z" fill="#333" opacity=".999"/>
 </g>
 <g id="layer4">
  <path id="l4" d="m65.666 0a65.666 65.666 0 0 0-65.666 65.666h20.344v5.29e-4h0.46974v9.216l1.6898 0.80615 1.6909-0.80615v-9.216h3.1548v-5.29e-4h3.1269v5.29e-4h-0.68988v13.897h1.7136v-13.897h2.7006v-5.29e-4h4.5708v5.29e-4h-2.6892v10.649h1.833v-4.9005h1.016v0.75654l0.74724 1.9131 0.74621-1.9131v-0.75654h1.1364v-5.749h0.55759v11.167h1.1358v-11.167h2.25v-5.29e-4h43.883v5.29e-4h0.25373v7.7794h3.0706v-7.7794h14.735v6.1733h0.61184v0.9803h0.15917v-0.9803h0.22892v0.37259h0.67748v-0.37259h0.40825v1.4583h0.24959v-1.4583h0.79117v-4.3388h2.7848v4.5119h1.4139v0.37827h1.1555v-0.37827h0.37879v-6.3464h6.7484v-5.29e-4h8.2765a65.666 65.666 0 0 0-65.666-65.666zm-55.558 65.666-1.8304 5.29e-4v9.3002h1.4929v0.47904h1.8309v-0.47904h1.7472v-9.3002h-3.2406zm8.0858 5.29e-4v9.2351h0.55759v0.87643h1.0759v-10.112zm52.854 0v12.991h2.3384v-12.991zm11.777 0v14.569l2.2815 5.29e-4v-14.569zm2.7606 0v7.6946h1.5214v-7.6946zm2.0567 0v7.4414h1.465v-7.4414z" fill="#666" opacity=".999"/>
 </g>
 <g id="layer3">
  <path id="l3" d="m65.666 0a65.666 65.666 0 0 0-65.666 65.666h19.236v5.29e-4h0.7245v5.5692h0.61753v2.2314h2.1317v-7.8006h0.25011v-5.29e-4h4.5708v5.29e-4h2.7497v6.2089l1.2676 0.66663 1.2676-0.66663v-6.2089h1.448v-5.29e-4h2.59v5.29e-4h1.6139v12.144h2.8288v-12.144h-2.5497v-5.29e-4h2.7089v5.29e-4h2.2712v11.944h0.5581v6.1758h2.5497v-2.3911h0.67748v-15.729h-3.1078v-5.29e-4h4.0044v5.29e-4h6.8926v6.2668h0.51831v7.7096l2.1916 1.2004 2.1911-1.2004v-7.7096h0.35864v-6.2668h-1.016v-5.29e-4h7.4502v5.29e-4h-2.2872v15.302h6.536v-15.302h-0.67593v-5.29e-4h7.5789v5.29e-4h6.6208v11.893h1.8593v-11.893h20.341v9.2723h0.78859v1.0707h0.98598v0.95808h1.5782v-0.95808h0.98599v-1.0707h0.78858v-9.2723h-0.28164v-5.29e-4h19.518a65.666 65.666 0 0 0-65.666-65.666z" fill="#808080" opacity=".999"/>
 </g>
 <g id="layer2">
  <path id="l2" d="m65.666 0a65.666 65.666 0 0 0-65.666 65.666h27.168v5.29e-4h-0.13178v5.29e-4h-1.973v8.1189h0.7767v0.817h1.1756v-0.817h0.63717v-5.7971h2.6097v3.4065h0.77721v2.4107h0.81649v-8.1396h-0.96428v-5.29e-4h34.669v6.1361h0.47904v0.98599h0.31006v1.7751h0.59169v2.2257h3.5626v-2.2257h0.70435v-1.7751h0.45062v-7.1215h-1.6934v5.3e-4h-0.62012v-5.3e-4h-1.8691v-5.29e-4h20.802v1e-3h-1.5513v5.7221h3.9445v-2.3952h2.0283v-3.3269h-1.0402v-1e-3h1.6356v5.7294h3.4665v-2.4505h1.295v-3.2778h-2.2112v-1e-3h35.486a65.666 65.666 0 0 0-65.666-65.666zm28.606 65.666h0.19895v1e-3h-0.19895zm30.52 5.29e-4v3.8964h0.37828v0.95601h1.8531v-0.95601h2.0159v-3.8964zm-122.5 5.29e-4v9.3147c2.6749-1.2207 3.4065-1.5544 3.4065-1.5544v-7.7603zm9.2671 0v1.665h0.38034v5.5785h1.5214v-7.2435zm5.3754 0v1.7441h0.31884v0.49764h0.85576v-0.49764h0.83768v3.7853h0.35812v1.6934h0.43873v0.77618h0.45785v-0.77618h0.41806v-1.6934h1.4149v-3.7853h1.0754v-0.35864h1.2356v-1.3854zm24.178 0v7.1308h0.50695v2.451h0.16898v0.5917h0.0072v0.75448l0.73381 0.7245h1.5012l0.7338-0.7245v-0.75448h0.60203v-10.174zm6.2415 0v11.944h5.29e-4v4.7413h3.4665v-4.7413l0.46147-11.944zm7.9571 0v6.5676h0.32453v5.2684h0.35605c0.0593 0.87223 0.78456 1.5492 1.6588 1.5493 0.87406-2.35e-4 1.5985-0.6772 1.6578-1.5493h0.35605v-5.2684l0.09818-6.5676z" fill="#b3b3b3" opacity=".999"/>
 </g>
 <g id="layer1">
  <path id="l1" d="m65.666 0a65.666 65.666 0 0 0-65.666 65.666h6.8254v6.2859h0.83406v1.3157h3.6649v-7.6016h2.1317v7.7608h3.6065v-7.7608h7.0053v5.4694h1.324v1.6898h1.0149v-1.6898h0.78806v-5.4694h3.7243v6.5655h1.4883v-4.084h0.31471v0.7767h2.7678v-3.2582h6.7329v7.1231h2.5895v-7.1231h1.8934v6.4854h2.7089v-6.4854h2.9487v2.7006h4.0039v-2.7006h11.137v6.1071h7.4502v-6.1071h3.5729v7.9768h3.0148v-4.3672h4.5641v-3.6096h33.667v3.5248h4.733v-3.5248h6.8254a65.666 65.666 0 0 0-65.666-65.666z" fill="#e6e6e6" opacity=".999" stroke-width=".17355"/>
 </g>
 <g id="toplayer">
  <rect id="top" x="-35.19" y="65.666" width="201.71" height="65.666" ry="0" fill="#fff" opacity=".999" stroke-width=".18184"/>
 </g>
</svg>
